# xmcd
#
# Track frame offsets:
#	150
#	20275
#	39728
#	63574
#	84526
#	103654
#	123125
#	140745
#	156648
#	172788
#	191178
#	206801
#
# Disc length: 2941 seconds
#
# Revision: 1
# Processed by: cddbd v1.5PL3 Copyright (c) Steve Scherf et al.
# Submitted via: EasyCDDAExtractor 7.0.4.1
#
DISCID=ac0b7b0c
DTITLE=Anastasia
DYEAR=2004
DGENRE=Pop/Funk
TTITLE0=Season change
TTITLE1=Left Outside Alone
TTITLE2=Time
TTITLE3=Sick And Tired
TTITLE4=Heavy On My Heart
TTITLE5=I Do
TTITLE6=Welcome To My Truth
TTITLE7=Pretty Little Dum dum
TTITLE8=Sexy Single
TTITLE9=RearView
TTITLE10=Where Do I Belong
TTITLE11=Maybe Today
EXTD=
EXTT0=
EXTT1=
EXTT2=
EXTT3=
EXTT4=
EXTT5=
EXTT6=
EXTT7=
EXTT8=
EXTT9=
EXTT10=
EXTT11=
PLAYORDER=
